# xmcd
#
# Track frame offsets:
#	150
#	9030
#	32155
#	53323
#	68810
#	83208
#	118593
#	139413
#	161953
#	191048
#	208598
#	245495
#	274555
#
# Disc length: 3866 seconds
#
# Revision: 1
# Processed by: cddbd v1.5.2PL0 Copyright (c) Steve Scherf et al.
# Submitted via: audiograbber 1.83.01
#
DISCID=af0f180d
DTITLE=King, B. B. - Live at San Quentin
DYEAR=1990
DGENRE=Blues
TTITLE0=B .B. King intro
TTITLE1=Let the good times roll
TTITLE2=Every day I have the blues
TTITLE3=Whole lotta loving
TTITLE4=Sweet little angel
TTITLE5=Never make a move too soon
TTITLE6=Into the night
TTITLE7=Ain't nobody's bizness
TTITLE8=The thrill is gone
TTITLE9=Peace to the world
TTITLE10=Nobody loves me but my mother
TTITLE11=Sweet sixteen
TTITLE12=Rock me baby
EXTD=
EXTT0=
EXTT1=
EXTT2=
EXTT3=
EXTT4=
EXTT5=
EXTT6=
EXTT7=
EXTT8=
EXTT9=
EXTT10=
EXTT11=
EXTT12=
PLAYORDER=
